<?xml version="1.0"?>
<svg xmlns:rdf="http://www.w3.org/1999/02/22-rdf-syntax-ns#" xmlns="http://www.w3.org/2000/svg" xmlns:cc="http://creativecommons.org/ns#" xmlns:dc="http://purl.org/dc/elements/1.1/" id="Calque_2" xml:space="preserve" viewBox="0 0 246.5 120.5" version="1.1" y="0px" x="0px" enable-background="new 0 0 246.5 120.5"><title id="title3024">Bus bleu</title>
<path id="path3" fill="#444139" d="m10.25 21.917c-0.917 0.583-1.667 2.917-1.667 2.917s-0.5-0.25-1.083 1.417-2.5 10.916-0.583 11.916 2.75 0.833 2.75 0.833 3.5-13 3.083-13.25-1.667-1-3-1.167 0.417-1.917 0.917-2.083 3.5-0.083 3.5-0.083-0.167 2.583 1.583 3.25 14.324 2.044 14.324 2.044l0.093-5.011s-19-1.367-19.917-0.783zm5.833 2.916c-1.083-1.25-0.917-2.25-0.917-2.25l10.5 0.5 0.25 3.417c0.001 0-8.749-0.417-9.833-1.667z"/>
<path id="path5" fill="#373739" d="m159.25 71.875c-6.701-0.592-10.051 3.859-11.723 8.215l12.223 17.911 5.917 1.666s0.083-1.918 0.083-4.542v-11.75s0.03-10.924-6.5-11.5zm69.75 3.709v-8.25s-0.167-6.667-3.167-7.084c-3.216-0.447-4.172 5.547-4.371 7.174l4.038 10.41s3.376 0.708 3.542 0.625c0.141-0.07 0.132-1.874 0.15-2.721l-0.19-0.154z"/>
<g id="g7">
	<path id="path9" fill="#444139" d="m223.91 63.027h-5.323c-1.841 0-3.02 4.244-3.02 9.742s1.162 9.953 2.81 9.953h5.323c2.535 0 4.138-4.455 4.138-9.953s-1.4-9.742-3.93-9.742z"/>
	<path id="path11" fill="#C0C1C2" d="m226.6 73.042c0 3.544-1.033 6.416-2.666 6.416-1.063 0-1.813-2.872-1.813-6.416s0.76-6.28 1.945-6.28c1.65 0 2.54 2.736 2.54 6.28z"/>
</g>
<g id="g13">
	<path id="path15" fill="#444139" d="m163.56 91.417c0-8.745-4.242-15.834-9.476-15.834h-8.25l0.04 0.039c-5.018 0.403-9.016 7.31-9.016 15.795 0 8.745 3.783 15.291 9.018 15.291h8.292l0.019-0.044c5.01-0.45 9.38-6.82 9.38-15.253z"/>
	<ellipse id="ellipse17" rx="6.084" ry="10.167" cy="91.417" cx="154.08" fill="#696A6C"/>
	<ellipse id="ellipse19" rx="4.083" ry="7.25" cy="91.417" cx="156.17" fill="#C0C1C2"/>
</g>
<path id="path21" fill="#4B6DAA" d="m243.83 27c-0.25-0.667 0.75-1.167-2.75-1.583s-145.6-22.173-146.08-22.334c-2.749-0.916-5-0.416-5-0.416s-5.002-1.191-8.167-0.833c-29.5 3.333-48.167 9-49.333 9.167s-2.583 0.5-2.667 2.167 0.25 12.832-0.083 13.749-4.25 14.833-4.625 32.958-0.125 30.125 0.375 30.25 6 1.625 7.5 3.5 1.5 4.875 1.5 4.875l-7.625-1.625s-1.418 0.389-1.25 0.875c1.125 3.25 0.625 6.25 1.125 6.625 0.86 0.646 23.25 7.25 43.125 11 9.756 1.841 18.625 4.375 28.25 1.75s47.375-14.875 47.75-15.375v-13.885s0.625-17.125 13.375-16c6.533 0.576 6.5 11.5 6.5 11.5v11.75l0.75 0.375 54.49-17.75 0.417-9.916s0.699-8.101 4.417-7.584c3 0.417 3.167 7.084 3.167 7.084v8.25l0.416 0.333s2.666-1.417 3.75-1.667 3.334-0.749 3.667-0.916 7.583-4.75 7.833-5.167-0.6-40.5-0.85-41.167zm-159.58-20.25c0.167-1.167 2.583 0.333 1.917 3.583-0.355 1.731-1.5 2.25-1.75 1.917s-0.167-5.5-0.167-5.5zm-53.334 74.917c-6.417-0.75-4.75-7.583-4.5-27.333 0.137-10.835 4-26.584 4.083-27.084s0-10.917-0.083-13 7.917-3.167 23.917-6.417 26.099-3.734 26.417-3.417c0.417 0.417 2.75 16.75 2.75 17.917s-0.861 6.858-2.083 22.833c-1.25 16.333-1.417 30.166-1.583 35s-2.333 6.333-8.25 6.25-34.251-3.999-40.668-4.749zm61.916 19.663c0 0.25-4.25 5.25-5.167 5.75s-4.583 0.334-6.667 0.167-11.583-1.334-11.75-1.584-0.583-1.166-0.5-1.416 4.167-4.917 5.333-5.167 12.25 0.167 14.5 0.083 4.417-1 4.417-1c0.251 0.166-0.166 2.914-0.166 3.164zm141-46.663c-3.184 0.386-116.42 15.25-117.75 15.833s-9 13.583-9.917 14-11.75 2.5-15.833 2.583-7.084-3.999-7.167-7.666-0.083-5.917 0.417-25.084 2.583-30.666 2.75-31.75 0.916-4.583 3.478-10.771 5.5-6.438 8.875-5.938 144.12 20.938 144.5 21.313 0.646 21.896 0.646 22.563-4.5 4.25-10 4.917z"/>
<path id="path23" fill="#696A6C" d="m84.251 6.75s-0.083 5.167 0.167 5.5 1.395-0.185 1.75-1.917c0.666-3.25-1.751-4.75-1.917-3.583z"/>
<path id="path25" fill="#98A298" d="m243.19 27.188c-0.375-0.375-141.12-20.813-144.5-21.313s-6.313-0.25-8.875 5.938-3.478 10.771-3.478 10.771c-0.011 0.071-0.031 0.189-0.057 0.349l6.89 0.151 2.167 57.25s-1.667 0.166-4.5 0.333c-2.206 0.13-5.917 0.259-7.457 0.31 0.746 3.174 3.449 6.179 6.958 6.106 4.079-0.083 14.912-2.166 15.832-2.583s8.584-13.417 9.917-14 114.57-15.447 117.75-15.833c5.5-0.667 10-4.251 10-4.917s-0.28-22.187-0.65-22.562zm-110.44 38.187c-0.375 0.125-16.167 1.792-17.25 2.208s-6.583 10.084-7.083 10.334-9.167 1.416-9.167 1.416l-1.753-55.833 33.625 1.75s2 40 1.63 40.125zm110.44-15.625c-0.063 0.375-2.625 2.938-9.625 4.438-3.03 0.65-93.06 10.437-93.56 10.062s-1.875-38.5-1.875-38.5 104.56 7.438 104.81 7.5 0.32 16.125 0.26 16.5z"/>
<path id="path27" fill="#E2E7ED" d="m26.833 90.666l0.042 6.209 7.625 1.625s-0.176-3.796-1.833-5.167c-2.417-2-5.834-2.667-5.834-2.667z"/>
<path id="path29" fill="#E2E7ED" d="m138.12 25.75s1.375 38.125 1.875 38.5 90.527-9.412 93.563-10.063c7-1.5 9.563-4.063 9.625-4.438 0.063-0.375 0-16.438-0.25-16.5s-104.81-7.499-104.81-7.499z"/>
<path id="path31" fill="#E2E7ED" d="m95.333 80.334l-2.167-57.25-6.89-0.151c-0.376 2.276-2.226 13.489-2.693 31.401-0.5 19.167-0.5 21.417-0.417 25.084 0.012 0.518 0.087 1.04 0.209 1.561 1.54-0.052 5.251-0.181 7.457-0.311 2.835-0.168 4.501-0.334 4.501-0.334z"/>
<path id="path33" fill="#E2E7ED" d="m93 98.166s-2.167 0.916-4.417 1-13.333-0.333-14.5-0.083-5.25 4.917-5.333 5.167 0.333 1.166 0.5 1.416 9.667 1.417 11.75 1.584 5.75 0.333 6.667-0.167 5.167-5.5 5.167-5.75 0.416-2.998 0.166-3.164z"/>
<path id="path35" fill="#E2E7ED" d="m97.5 23.5l1.75 55.833s8.667-1.166 9.167-1.416 6-9.918 7.083-10.334 16.875-2.083 17.25-2.208-1.625-40.125-1.625-40.125l-33.62-1.75z"/>
<path id="path37" fill="#98A298" d="m27.75 75.5s-0.167-8.333 0.25-21.916 4.083-24.167 4.833-25.084 9.167-1.333 22.917-2.75c11.712-1.207 24.265-2.594 27.729-2.979 0.014-0.187 0.021-0.332 0.021-0.438 0-1.167-2.333-17.5-2.75-17.917-0.317-0.317-10.417 0.167-26.417 3.417s-24 4.333-23.917 6.417 0.166 12.5 0.083 13-3.946 16.249-4.083 27.084c-0.25 19.75-1.917 26.583 4.5 27.333s34.75 4.667 40.667 4.75c5.74 0.081 7.945-1.338 8.224-5.837-3.746-0.318-17.195-1.482-29.807-2.83-14.833-1.584-22.25-2.25-22.25-2.25z"/>
<path id="path39" fill="#E2E7ED" d="m81.417 45.167c1.111-14.518 1.923-20.542 2.062-22.396-3.465 0.385-16.017 1.771-27.729 2.979-13.75 1.417-22.167 1.833-22.917 2.75s-4.416 11.501-4.833 25.084-0.25 21.916-0.25 21.916 7.417 0.666 22.25 2.25c12.612 1.348 26.061 2.512 29.808 2.83 0.009-0.139 0.021-0.27 0.026-0.413 0.167-4.834 0.333-18.667 1.583-35z"/>
<path id="path41" fill="#444139" d="m95.875 26.625c-1.25 0-1.938 0.125-1.938 0.125s-0.625 0.063-0.688 0.563 0.314 0.687 0.814 0.687 1.313 0.063 1.313 0.063-0.013 5.125 0.063 8.875c0.125 6.25 0.313 10 0.5 10.188s7.25 0.125 7.938 0.063 1.5-0.5 1.625-2.375 0.563-13.438 0.438-15.188 0.063-2.75-3.063-2.938-7.005-0.063-7.005-0.063z"/>
<metadata><rdf:RDF><cc:Work><dc:format>image/svg+xml</dc:format><dc:type rdf:resource="http://purl.org/dc/dcmitype/StillImage"/><cc:license rdf:resource="http://creativecommons.org/licenses/publicdomain/"/><dc:publisher><cc:Agent rdf:about="http://openclipart.org/"><dc:title>Openclipart</dc:title></cc:Agent></dc:publisher></cc:Work><cc:License rdf:about="http://creativecommons.org/licenses/publicdomain/"><cc:permits rdf:resource="http://creativecommons.org/ns#Reproduction"/><cc:permits rdf:resource="http://creativecommons.org/ns#Distribution"/><cc:permits rdf:resource="http://creativecommons.org/ns#DerivativeWorks"/></cc:License></rdf:RDF></metadata></svg>
